<mxfile host="app.diagrams.net" modified="2023-12-29T12:43:49.412Z" agent="Mozilla/5.0 (Windows NT 10.0; Win64; x64) AppleWebKit/537.36 (KHTML, like Gecko) Chrome/120.0.0.0 Safari/537.36" version="22.1.16" etag="X0O5VkWa8APriEa332u5" type="github">
  <diagram name="Trang-1" id="uTVCSFy4Dxpg8zJNSSmw">
    <mxGraphModel>
      <root>
        <mxCell id="0" />
        <mxCell id="1" parent="0" />
      </root>
    </mxGraphModel>
  </diagram>
</mxfile>
